<?xml version="1.0" encoding="UTF-8"?>
<svg id="Layer_1" data-name="Layer 1" xmlns="http://www.w3.org/2000/svg" viewBox="0 0 256 256">
  <defs>
    <style>
      .cls-1 {
        fill: #be1e2d;
      }

      .cls-2 {
        fill: #cd9c40;
      }

      .cls-3 {
        fill: #6d6e71;
      }

      .cls-4 {
        fill: #fbb040;
      }

      .cls-5 {
        fill: #8b5e3c;
      }

      .cls-6 {
        fill: none;
      }
    </style>
  </defs>
  <rect class="cls-6" width="256" height="256"/>
  <polygon class="cls-4" points="68.16 143.63 72.77 165.87 86.57 188.49 111.11 196.16 142.16 183.51 164.4 158.59 167.08 145.55 172.45 147.47 181.65 134.81 187.79 118.33 187.79 109.13 167.47 109.13 166.32 80.75 149.83 75 126.06 68.1 100.75 70.02 80.43 73.47 70.46 77.69 66.25 97.24 68.16 143.63"/>
  <polygon class="cls-2" points="73.53 160.57 139.86 168.53 162.63 160.57 165.36 213.39 131.07 251.35 73.53 212.24 68.36 167.76 73.53 160.57"/>
  <polygon class="cls-5" points="74.82 87.71 123.58 98.95 158.77 89.89 160.51 106.94 180.71 112.38 187.68 129.06 193.25 74.31 182.1 43.45 162.95 31.48 124.98 26.04 87.01 32.57 68.2 44.54 54.27 65.22 54.27 89.52 60.54 102.95 72.38 101.49 74.82 87.71"/>
  <polygon class="cls-3" points="68.36 135.37 77.17 160.29 87.14 139.2 134.3 147.83 134.3 164.5 165.36 147.63 162.67 164.5 128.96 191.73 92.51 194.41 68.36 159.52 68.36 135.37"/>
  <polygon class="cls-4" points="88.49 151.66 131.07 158.94 121.84 175.43 88.49 172.36 88.49 151.66"/>
  <polygon class="cls-3" points="66.25 94.15 103.44 102.97 113.79 104.88 152.51 104.88 181.27 94.15 181.27 104.88 151.75 110.25 143.31 129.06 118.39 127.12 113.41 113.7 100.75 108.33 96.15 122.14 69.7 117.15 66.25 94.15"/>
  <polygon class="cls-1" points="91.17 156.26 127.02 160.09 120.69 164.89 92.32 160.57 91.17 156.26"/>
  <polygon class="cls-1" points="0 210.11 35.19 192.3 68.93 159.33 91.17 204.95 117.62 219.14 129.89 242.57 162.48 207.64 162.48 163.55 221.53 200.16 256 225.61 256 256 0 256 0 210.11"/>
</svg>